<svg id="Groupe_129" data-name="Groupe 129" xmlns="http://www.w3.org/2000/svg" xmlns:xlink="http://www.w3.org/1999/xlink" width="129" height="41" viewBox="0 0 129 41">
  <defs>
    <clipPath id="clip-path">
      <rect id="Rectangle_135" data-name="Rectangle 135" width="129" height="41" fill="none"/>
    </clipPath>
  </defs>
  <g id="Groupe_de_masques_128" data-name="Groupe de masques 128" clip-path="url(#clip-path)">
    <rect id="Rectangle_133" data-name="Rectangle 133" width="128" height="40" rx="4" transform="translate(0.5 0.5)" fill="none" stroke="#000000" stroke-miterlimit="10" stroke-width="1"/>
    <path id="Tracé_372" data-name="Tracé 372" d="M27.481,20.252a5.624,5.624,0,0,1,2.677-4.717,5.756,5.756,0,0,0-4.534-2.451c-1.908-.2-3.757,1.141-4.729,1.141-.991,0-2.488-1.121-4.1-1.088a6.037,6.037,0,0,0-5.081,3.1c-2.2,3.8-.558,9.394,1.546,12.469,1.053,1.506,2.284,3.188,3.894,3.128,1.576-.065,2.165-1.005,4.067-1.005,1.884,0,2.436,1.005,4.079.967,1.691-.027,2.756-1.512,3.772-3.032A12.431,12.431,0,0,0,30.8,25.25a5.434,5.434,0,0,1-3.316-5" fill="#000000"/>
    <path id="Tracé_373" data-name="Tracé 373" d="M24.377,11.062A5.535,5.535,0,0,0,25.643,7.1,5.626,5.626,0,0,0,22,8.982,5.268,5.268,0,0,0,20.7,12.8a4.651,4.651,0,0,0,3.677-1.738" fill="#000000"/>
    <path id="Tracé_374" data-name="Tracé 374" d="M50.285,31.618h-2.2l-1.206-3.791H42.684l-1.149,3.791H39.391l4.154-12.905h2.566Zm-3.772-5.381-1.091-3.369q-.173-.517-.652-2.432h-.038q-.19.825-.613,2.432l-1.071,3.369Z" fill="#000000"/>
    <path id="Tracé_375" data-name="Tracé 375" d="M60.968,26.85A5.288,5.288,0,0,1,59.685,30.6a3.75,3.75,0,0,1-2.852,1.226,2.853,2.853,0,0,1-2.642-1.321h-.039v4.9H52.085V25.376q0-1.492-.077-3.064h1.819l.114,1.475h.039a3.679,3.679,0,0,1,5.887-.365,5.134,5.134,0,0,1,1.1,3.428m-2.106.076a3.835,3.835,0,0,0-.613-2.24,2.118,2.118,0,0,0-1.8-.919,2.146,2.146,0,0,0-1.388.507,2.356,2.356,0,0,0-.814,1.332,2.71,2.71,0,0,0-.1.631v1.551a2.488,2.488,0,0,0,.622,1.714,2.066,2.066,0,0,0,1.618.7,2.117,2.117,0,0,0,1.819-.9,3.964,3.964,0,0,0,.651-2.375" fill="#000000"/>
    <path id="Tracé_376" data-name="Tracé 376" d="M71.671,26.85A5.284,5.284,0,0,1,70.387,30.6a3.749,3.749,0,0,1-2.852,1.226,2.853,2.853,0,0,1-2.642-1.321h-.038v4.9H62.788V25.376q0-1.492-.077-3.064H64.53l.115,1.475h.038a3.68,3.68,0,0,1,5.888-.365,5.139,5.139,0,0,1,1.1,3.428m-2.106.076a3.828,3.828,0,0,0-.614-2.24,2.115,2.115,0,0,0-1.8-.919,2.148,2.148,0,0,0-1.388.507,2.36,2.36,0,0,0-.813,1.332,2.711,2.711,0,0,0-.1.631v1.551a2.492,2.492,0,0,0,.621,1.714,2.067,2.067,0,0,0,1.619.7,2.117,2.117,0,0,0,1.819-.9,3.971,3.971,0,0,0,.651-2.375" fill="#000000"/>
    <path id="Tracé_377" data-name="Tracé 377" d="M83.637,28a3.439,3.439,0,0,1-1.146,2.68,5.077,5.077,0,0,1-3.515,1.13,6.159,6.159,0,0,1-3.345-.8l.479-1.724A5.668,5.668,0,0,0,79.1,30.1a2.828,2.828,0,0,0,1.82-.527,1.722,1.722,0,0,0,.65-1.41,1.8,1.8,0,0,0-.536-1.323,4.981,4.981,0,0,0-1.781-1q-3.389-1.265-3.388-3.7a3.276,3.276,0,0,1,1.188-2.608,4.682,4.682,0,0,1,3.159-1.017,6.266,6.266,0,0,1,2.928.613l-.517,1.685a5.086,5.086,0,0,0-2.47-.594,2.492,2.492,0,0,0-1.7.537,1.531,1.531,0,0,0-.518,1.168,1.575,1.575,0,0,0,.593,1.263,6.7,6.7,0,0,0,1.877,1,6.38,6.38,0,0,1,2.451,1.569A3.3,3.3,0,0,1,83.637,28" fill="#000000"/>
    <path id="Tracé_378" data-name="Tracé 378" d="M90.472,23.864H88.194v4.518q0,1.724,1.206,1.724a3.737,3.737,0,0,0,.919-.1l.056,1.57a4.687,4.687,0,0,1-1.608.229,2.479,2.479,0,0,1-1.914-.746,3.665,3.665,0,0,1-.69-2.509v-4.69H84.805V22.313h1.358v-1.7L88.194,20v2.317h2.278Z" fill="#000000"/>
    <path id="Tracé_379" data-name="Tracé 379" d="M100.755,26.888a5.1,5.1,0,0,1-1.227,3.522,4.371,4.371,0,0,1-3.409,1.417,4.162,4.162,0,0,1-3.263-1.358,4.958,4.958,0,0,1-1.216-3.427A5.049,5.049,0,0,1,92.895,23.5a4.334,4.334,0,0,1,3.378-1.378,4.245,4.245,0,0,1,3.293,1.359,4.9,4.9,0,0,1,1.189,3.407m-2.147.067a4.19,4.19,0,0,0-.555-2.208A2.043,2.043,0,0,0,96.2,23.633a2.074,2.074,0,0,0-1.9,1.114,4.267,4.267,0,0,0-.555,2.247A4.182,4.182,0,0,0,94.3,29.2a2.113,2.113,0,0,0,3.734-.019,4.194,4.194,0,0,0,.573-2.227" fill="#000000"/>
    <path id="Tracé_380" data-name="Tracé 380" d="M107.474,24.131a3.572,3.572,0,0,0-.652-.057,1.955,1.955,0,0,0-1.685.824,3.093,3.093,0,0,0-.517,1.837v4.883h-2.067l.019-6.375q0-1.609-.077-2.93h1.8l.076,1.78h.056a3.172,3.172,0,0,1,1.035-1.473,2.5,2.5,0,0,1,1.494-.5,3.365,3.365,0,0,1,.517.037Z" fill="#000000"/>
    <path id="Tracé_381" data-name="Tracé 381" d="M116.721,26.525a4.883,4.883,0,0,1-.076.938h-6.2a2.7,2.7,0,0,0,.9,2.107,3.075,3.075,0,0,0,2.028.65,6.879,6.879,0,0,0,2.51-.44l.324,1.435a7.764,7.764,0,0,1-3.12.575,4.51,4.51,0,0,1-3.4-1.274A4.7,4.7,0,0,1,108.45,27.1a5.33,5.33,0,0,1,1.149-3.5,3.963,3.963,0,0,1,3.254-1.492,3.468,3.468,0,0,1,3.046,1.492,5.034,5.034,0,0,1,.822,2.93m-1.972-.536a2.814,2.814,0,0,0-.4-1.589,1.807,1.807,0,0,0-1.648-.862,1.961,1.961,0,0,0-1.646.843,3.078,3.078,0,0,0-.612,1.608Z" fill="#000000"/>
    <path id="Tracé_382" data-name="Tracé 382" d="M45.83,10.774A3.182,3.182,0,0,1,44.8,13.351a4.076,4.076,0,0,1-2.7.8,12.6,12.6,0,0,1-1.487-.076V7.839a10.884,10.884,0,0,1,1.75-.132,3.771,3.771,0,0,1,2.511.725,2.923,2.923,0,0,1,.95,2.342m-1.072.028a2.318,2.318,0,0,0-.588-1.7,2.315,2.315,0,0,0-1.717-.592,4.339,4.339,0,0,0-.818.066v4.74a5.387,5.387,0,0,0,.686.029,2.41,2.41,0,0,0,1.8-.649,2.6,2.6,0,0,0,.635-1.891" fill="#000000"/>
    <path id="Tracé_383" data-name="Tracé 383" d="M51.511,11.771a2.507,2.507,0,0,1-.6,1.73,2.149,2.149,0,0,1-1.675.7,2.047,2.047,0,0,1-1.6-.668,2.432,2.432,0,0,1-.6-1.684,2.486,2.486,0,0,1,.615-1.74,2.132,2.132,0,0,1,1.66-.677,2.1,2.1,0,0,1,1.619.667,2.417,2.417,0,0,1,.583,1.675m-1.054.033a2.064,2.064,0,0,0-.273-1.085,1,1,0,0,0-.912-.547,1.019,1.019,0,0,0-.932.547,2.11,2.11,0,0,0-.272,1.1,2.077,2.077,0,0,0,.272,1.086,1.027,1.027,0,0,0,.923.546,1.016,1.016,0,0,0,.912-.556,2.06,2.06,0,0,0,.282-1.094" fill="#000000"/>
    <path id="Tracé_384" data-name="Tracé 384" d="M59.129,9.523,57.7,14.094h-.931l-.593-1.984a14.946,14.946,0,0,1-.367-1.477H55.79a10.8,10.8,0,0,1-.367,1.477l-.63,1.984h-.941L52.507,9.523h1.044l.517,2.173q.188.771.311,1.467H54.4q.114-.573.377-1.458l.649-2.182h.827l.621,2.135q.227.781.367,1.505h.028a14.4,14.4,0,0,1,.311-1.505l.555-2.135Z" fill="#000000"/>
    <path id="Tracé_385" data-name="Tracé 385" d="M64.4,14.094H63.381V11.476q0-1.211-.921-1.21a.915.915,0,0,0-.734.333,1.174,1.174,0,0,0-.283.783v2.712H60.427V10.83q0-.6-.037-1.307h.893l.048.714h.028a1.471,1.471,0,0,1,.527-.552,1.711,1.711,0,0,1,.921-.256,1.458,1.458,0,0,1,1.063.414,2.006,2.006,0,0,1,.527,1.514Z" fill="#000000"/>
    <rect id="Rectangle_134" data-name="Rectangle 134" width="1.015" height="6.669" transform="translate(66.184 7.425)" fill="#000000"/>
    <path id="Tracé_386" data-name="Tracé 386" d="M73.182,11.771a2.507,2.507,0,0,1-.6,1.73,2.149,2.149,0,0,1-1.674.7,2.045,2.045,0,0,1-1.6-.668,2.437,2.437,0,0,1-.6-1.684,2.486,2.486,0,0,1,.615-1.74,2.131,2.131,0,0,1,1.659-.677,2.1,2.1,0,0,1,1.62.667,2.417,2.417,0,0,1,.583,1.675m-1.055.033a2.064,2.064,0,0,0-.273-1.085,1,1,0,0,0-.911-.547,1.015,1.015,0,0,0-.931.547,2.1,2.1,0,0,0-.273,1.1,2.068,2.068,0,0,0,.273,1.086,1.038,1.038,0,0,0,1.833-.01,2.051,2.051,0,0,0,.282-1.094" fill="#000000"/>
    <path id="Tracé_387" data-name="Tracé 387" d="M78.1,14.094h-.913l-.076-.526h-.028a1.569,1.569,0,0,1-1.335.63,1.377,1.377,0,0,1-1.044-.415,1.3,1.3,0,0,1-.358-.931,1.422,1.422,0,0,1,.7-1.279,3.655,3.655,0,0,1,1.972-.433v-.084q0-.9-.949-.9a2.126,2.126,0,0,0-1.192.338l-.206-.667a2.918,2.918,0,0,1,1.568-.4q1.792,0,1.794,1.89V13a7.1,7.1,0,0,0,.066,1.091m-1.055-1.571v-.7q-1.681-.029-1.682.921a.694.694,0,0,0,.195.537.713.713,0,0,0,.5.178,1.022,1.022,0,0,0,.621-.211.866.866,0,0,0,.352-.541.843.843,0,0,0,.017-.179" fill="#000000"/>
    <path id="Tracé_388" data-name="Tracé 388" d="M83.876,14.094h-.9l-.049-.734H82.9a1.519,1.519,0,0,1-1.467.838,1.722,1.722,0,0,1-1.373-.649,2.528,2.528,0,0,1-.546-1.684,2.654,2.654,0,0,1,.592-1.8,1.827,1.827,0,0,1,1.412-.639,1.372,1.372,0,0,1,1.288.62h.019V7.425H83.84v5.437q0,.667.036,1.232m-1.053-1.928V11.4a1.521,1.521,0,0,0-.028-.32,1.15,1.15,0,0,0-.369-.616.992.992,0,0,0-.679-.249,1.043,1.043,0,0,0-.894.451,1.938,1.938,0,0,0-.325,1.157,1.809,1.809,0,0,0,.312,1.1,1.046,1.046,0,0,0,.888.451.979.979,0,0,0,.8-.376,1.258,1.258,0,0,0,.292-.837" fill="#000000"/>
    <path id="Tracé_389" data-name="Tracé 389" d="M92.567,11.771a2.507,2.507,0,0,1-.6,1.73,2.147,2.147,0,0,1-1.674.7,2.051,2.051,0,0,1-1.605-.668,2.437,2.437,0,0,1-.6-1.684,2.486,2.486,0,0,1,.615-1.74,2.133,2.133,0,0,1,1.661-.677,2.091,2.091,0,0,1,1.618.667,2.417,2.417,0,0,1,.583,1.675m-1.053.033a2.064,2.064,0,0,0-.273-1.085,1,1,0,0,0-.913-.547,1.019,1.019,0,0,0-.931.547,2.1,2.1,0,0,0-.273,1.1,2.068,2.068,0,0,0,.273,1.086,1.039,1.039,0,0,0,1.835-.01,2.069,2.069,0,0,0,.282-1.094" fill="#000000"/>
    <path id="Tracé_390" data-name="Tracé 390" d="M98.031,14.094H97.016V11.476q0-1.211-.922-1.21a.915.915,0,0,0-.734.333,1.179,1.179,0,0,0-.282.783v2.712H94.061V10.83c0-.4-.011-.837-.036-1.307h.892l.048.714h.028a1.486,1.486,0,0,1,.527-.552,1.714,1.714,0,0,1,.922-.256,1.457,1.457,0,0,1,1.062.414,2,2,0,0,1,.527,1.514Z" fill="#000000"/>
    <path id="Tracé_391" data-name="Tracé 391" d="M104.87,10.285h-1.119v2.22c0,.565.2.847.593.847a1.786,1.786,0,0,0,.452-.048l.027.772a2.3,2.3,0,0,1-.79.113,1.213,1.213,0,0,1-.939-.367,1.787,1.787,0,0,1-.34-1.232V10.285h-.668V9.523h.668V8.686l1-.3V9.523h1.119Z" fill="#000000"/>
    <path id="Tracé_392" data-name="Tracé 392" d="M110.251,14.094h-1.017v-2.6q0-1.23-.921-1.229a.969.969,0,0,0-.969.713,1.245,1.245,0,0,0-.048.366v2.749h-1.015V7.425H107.3V10.18h.019a1.537,1.537,0,0,1,1.373-.751,1.42,1.42,0,0,1,1.046.414,2.078,2.078,0,0,1,.517,1.533Z" fill="#000000"/>
    <path id="Tracé_393" data-name="Tracé 393" d="M115.8,11.592a2.479,2.479,0,0,1-.038.461h-3.048a1.337,1.337,0,0,0,.442,1.035,1.515,1.515,0,0,0,1,.32,3.361,3.361,0,0,0,1.233-.217l.159.706a3.829,3.829,0,0,1-1.534.282,2.215,2.215,0,0,1-1.669-.625,2.308,2.308,0,0,1-.606-1.679,2.619,2.619,0,0,1,.565-1.722,1.944,1.944,0,0,1,1.6-.734,1.7,1.7,0,0,1,1.494.734,2.456,2.456,0,0,1,.406,1.439m-.97-.263a1.376,1.376,0,0,0-.2-.781.887.887,0,0,0-.809-.423.964.964,0,0,0-.808.414,1.537,1.537,0,0,0-.3.79Z" fill="#000000"/>
  </g>
</svg>
