<svg width="42" height="15" viewBox="0 0 42 15" fill="none" xmlns="http://www.w3.org/2000/svg">
<mask id="mask0_1_57" style="mask-type:alpha" maskUnits="userSpaceOnUse" x="30" y="2" width="3" height="3">
<path d="M31.088 4.43306C30.4959 4.43306 30.016 3.95311 30.016 3.36106C30.016 2.76901 30.4959 2.28906 31.088 2.28906C31.68 2.28906 32.16 2.76901 32.16 3.36106C32.16 3.95311 31.68 4.43306 31.088 4.43306Z" fill="white"/>
</mask>
<g mask="url(#mask0_1_57)">
<path d="M31.088 4.43306C30.4959 4.43306 30.016 3.95311 30.016 3.36106C30.016 2.76901 30.4959 2.28906 31.088 2.28906C31.68 2.28906 32.16 2.76901 32.16 3.36106C32.16 3.95311 31.68 4.43306 31.088 4.43306Z" fill="#202020"/>
</g>
<mask id="mask1_1_57" style="mask-type:alpha" maskUnits="userSpaceOnUse" x="15" y="-1" width="3" height="6">
<path d="M15.8997 -0.0770532L17.3898 -0.078125L17.3862 4.90698L15.8961 4.90805L15.8997 -0.0770532Z" fill="white"/>
</mask>
<g mask="url(#mask1_1_57)">
<path d="M14.0696 2.04407L14.6958 0.691906L19.2164 2.79328L18.5902 4.14544L14.0696 2.04407Z" fill="#6B6B6B"/>
</g>
<path d="M3.65936 7.36827C4.54829 7.35796 5.39096 7.76972 5.93763 8.48151V3.89844H7.50394V14.7417H5.93763V13.773C5.39096 14.4848 4.54829 14.8966 3.65936 14.8862C1.74018 14.7152 0.267944 13.0834 0.267944 11.1273C0.267944 9.17114 1.74018 7.53934 3.65936 7.36827ZM3.94414 8.81404C3.00796 8.75172 2.12937 9.27666 1.72844 10.1379C1.32751 10.9991 1.48569 12.0216 2.12736 12.7166C2.76902 13.4115 3.76381 13.6377 4.63609 13.287C5.50838 12.9362 6.08094 12.0798 6.08002 11.1273C6.11949 10.5275 5.91201 9.93798 5.5071 9.49945C5.10219 9.06092 4.53617 8.8127 3.94414 8.81404Z" fill="#A0A0A0"/>
<path d="M12.7986 14.8842C10.6885 14.8842 8.97791 13.2049 8.97791 11.1335C8.97791 9.06205 10.6885 7.38281 12.7986 7.38281C15.047 7.38281 16.6194 9.07062 16.4724 11.523H10.5944C10.6191 12.071 10.8658 12.5866 11.2798 12.9551C11.6938 13.3235 12.2406 13.5143 12.7986 13.4849C13.5659 13.5418 14.2941 13.1447 14.6502 12.4751H16.3401C15.8376 13.9625 14.3938 14.9446 12.7986 14.8842ZM10.6972 10.3978H14.7531C14.6229 9.42306 13.7706 8.69797 12.7692 8.70998C11.7305 8.66723 10.8294 9.40801 10.6899 10.4194L10.6972 10.3978Z" fill="#A0A0A0"/>
<path d="M17.9559 7.45455H19.5075V8.72979C19.7851 7.92585 20.5307 7.38644 21.3694 7.38291C21.573 7.38129 21.7762 7.40049 21.9759 7.44022V9.05934C21.726 8.97368 21.4639 8.93012 21.2001 8.93039C20.3115 8.93039 19.5075 9.6898 19.5075 11.1227V14.6188H17.9559V7.45455Z" fill="#A0A0A0"/>
<path d="M25.058 7.38281H23.45V14.6188H25.058V7.38281Z" fill="#A0A0A0"/>
<path d="M25.996 7.38281H27.7859L29.9866 12.448L32.2314 7.38281H34.036L30.7055 14.6188H29.2824L25.996 7.38281Z" fill="#A0A0A0"/>
<path d="M38.2587 14.8842C36.1486 14.8842 34.438 13.2049 34.438 11.1335C34.438 9.06205 36.1486 7.38281 38.2587 7.38281C40.5071 7.38281 42.0794 9.07062 41.9325 11.523H36.0544C36.0791 12.071 36.3259 12.5866 36.7399 12.9551C37.1539 13.3235 37.7007 13.5143 38.2587 13.4849C39.026 13.5418 39.7542 13.1447 40.1103 12.4751H41.8002C41.2976 13.9625 39.8539 14.9446 38.2587 14.8842ZM36.1573 10.3978H40.2132C40.0829 9.42306 39.2307 8.69797 38.2293 8.70998C37.1905 8.66723 36.2894 9.40801 36.15 10.4194L36.1573 10.3978Z" fill="#A0A0A0"/>
</svg>
