<svg id="Groupe_131" data-name="Groupe 131" xmlns="http://www.w3.org/2000/svg" xmlns:xlink="http://www.w3.org/1999/xlink" width="129" height="41" viewBox="0 0 129 41">
  <defs>
    <clipPath id="clip-path">
      <rect id="Rectangle_138" data-name="Rectangle 138" width="129" height="41" fill="none"/>
    </clipPath>
  </defs>
  <g id="Groupe_130" data-name="Groupe 130" clip-path="url(#clip-path)">
    <rect id="Rectangle_136" data-name="Rectangle 136" width="128" height="40" rx="4" transform="translate(0.5 0.5)" fill="none" stroke="#000000" stroke-miterlimit="10" stroke-width="1"/>
    <path id="Tracé_394" data-name="Tracé 394" d="M31.558,19.28,26.477,16.5,12.259,8.73a1.768,1.768,0,0,0-.951-.266.8.8,0,0,0-.182.021l.019.019a1.136,1.136,0,0,0-.871,1.072v21.05a1.128,1.128,0,0,0,.982,1.1l-.01.011.062,0a1.769,1.769,0,0,0,.951-.265l14.13-7.724,5.169-2.827a.853.853,0,0,0,0-1.641" fill="#000000" fill-rule="evenodd"/>
    <path id="Tracé_395" data-name="Tracé 395" d="M71.611,34.356A5.6,5.6,0,0,1,70.5,32.839l1.612-.686a3.409,3.409,0,0,0,.492.76,2.205,2.205,0,0,0,1.638.755,2.169,2.169,0,0,0,1.7-.8,2.841,2.841,0,0,0,.462-1.68v-.63c-1.151,1.48-3.667,1.274-5.074-.257a4.438,4.438,0,0,1,.03-5.927c1.5-1.488,3.73-1.675,5.041-.267l0,0V23.4h1.745v7.59a3.8,3.8,0,0,1-3.932,4.336,3.864,3.864,0,0,1-2.613-.967m41.853.419h0l1.686-3.994-2.985-6.925h1.7l2.127,4.932,2.081-4.932h1.7l-4.609,10.919Zm-8.07-3.815h0a2.685,2.685,0,0,1-.749-1.854,2.334,2.334,0,0,1,.618-1.63,3.754,3.754,0,0,1,2.795-1.045,3.637,3.637,0,0,1,1.8.414,1.642,1.642,0,0,0-1.763-1.688,1.707,1.707,0,0,0-1.658,1.077l-1.526-.619a3.147,3.147,0,0,1,3.147-2,3.254,3.254,0,0,1,3.448,3.666v4.194h-1.666v-.749a2.827,2.827,0,0,1-.912.723,3.213,3.213,0,0,1-1.395.282,3.15,3.15,0,0,1-2.142-.773m-53.277-3.6h0a4.16,4.16,0,1,1,4.16,4.2,4.158,4.158,0,0,1-4.16-4.2m9.03,0h0a4.16,4.16,0,1,1,4.159,4.2,4.157,4.157,0,0,1-4.159-4.2m-20.3,2.208h0a6.5,6.5,0,0,1,9.089-9.287l-1.247,1.3a4.542,4.542,0,0,0-6.441.088,4.831,4.831,0,0,0-.043,6.678,4.6,4.6,0,0,0,6.582.109,3.878,3.878,0,0,0,.938-2.242H45.508V24.426h5.928a7.345,7.345,0,0,1,.1,1.359,6,6,0,0,1-1.616,4.028,5.937,5.937,0,0,1-4.342,1.729,6.779,6.779,0,0,1-4.727-1.979m42.232.748h0a4.542,4.542,0,0,1,0-5.952,3.653,3.653,0,0,1,5.449-.009A6.332,6.332,0,0,1,89.6,26.279l-5.546,2.336a2.162,2.162,0,0,0,1.972,1.279A2.286,2.286,0,0,0,88.1,28.726l1.451.976h0c-.167.22-.373.439-.528.609a4.208,4.208,0,0,1-5.94,0M93.5,31.484h0V20.428h3.558a3.533,3.533,0,0,1,3.763,3.348,3.394,3.394,0,0,1-3.434,3.349h-2.2v4.359Zm8.425,0h0V20.426h1.685V31.484Zm-22.581-.179h0V18.93H81.19V31.305Zm30.506-3.064h0a3,3,0,0,0-1.589-.4c-1.2,0-1.878.607-1.878,1.27a1.229,1.229,0,0,0,1.371,1.107,2.108,2.108,0,0,0,2.1-1.972M58.6,27.354h0a2.33,2.33,0,1,0-2.321,2.534A2.426,2.426,0,0,0,58.6,27.354m9.029,0h0a2.33,2.33,0,1,0-2.321,2.534,2.426,2.426,0,0,0,2.321-2.534m8.825.763h0a2.355,2.355,0,0,0,.066-.3.129.129,0,0,0,.005-.04,2.605,2.605,0,0,0,.034-.445,2.491,2.491,0,0,0-.036-.418.227.227,0,0,0-.008-.053,2.236,2.236,0,0,0-.093-.373,2.278,2.278,0,0,0-2.132-1.665,2.544,2.544,0,0,0,.032,5.055,2.319,2.319,0,0,0,2.132-1.762m7.316-.912h0l3.7-1.569a1.707,1.707,0,0,0-1.533-.867A2.329,2.329,0,0,0,83.768,27.2M99.1,23.815h0a1.77,1.77,0,0,0-1.886-1.75H95.187v3.5h2.122A1.765,1.765,0,0,0,99.1,23.815" fill="#000000" fill-rule="evenodd"/>
    <path id="Tracé_396" data-name="Tracé 396" d="M39.422,10.559A2.824,2.824,0,0,1,42.37,7.654a2.627,2.627,0,0,1,2.256,1.162l-.8.464a1.811,1.811,0,0,0-1.457-.75,1.92,1.92,0,0,0-1.937,2.029,1.928,1.928,0,0,0,1.937,2.029,2.013,2.013,0,0,0,1.33-.505v-.867H42.016v-.867h2.66v2.1a3.033,3.033,0,0,1-2.307,1.027,2.835,2.835,0,0,1-2.947-2.913" fill="#000000"/>
    <path id="Tracé_397" data-name="Tracé 397" d="M45.9,13.363V7.746h3.848v.868H46.881v1.448h2.8v.867h-2.8V12.5h2.863v.867Z" fill="#000000"/>
    <path id="Tracé_398" data-name="Tracé 398" d="M52.47,13.363V8.614h-1.7V7.747h4.387v.867h-1.7v4.749Z" fill="#000000"/>
    <rect id="Rectangle_137" data-name="Rectangle 137" width="0.985" height="5.617" transform="translate(58.58 7.746)" fill="#000000"/>
    <path id="Tracé_399" data-name="Tracé 399" d="M62.308,13.363V8.614h-1.7V7.747h4.387v.867h-1.7v4.749Z" fill="#000000"/>
    <path id="Tracé_400" data-name="Tracé 400" d="M68.175,10.559a2.872,2.872,0,1,1,5.743,0,2.872,2.872,0,1,1-5.743,0m4.732,0a1.868,1.868,0,1,0-3.722,0,1.868,1.868,0,1,0,3.722,0" fill="#000000"/>
    <path id="Tracé_401" data-name="Tracé 401" d="M78.983,13.363l-2.93-4.016v4.016h-.984V7.746h1.01l2.871,3.891V7.746h.986v5.617Z" fill="#000000"/>
  </g>
</svg>
