<svg width="195" height="201" viewBox="0 0 195 201" fill="none" xmlns="http://www.w3.org/2000/svg">
<path fill-rule="evenodd" clip-rule="evenodd" d="M133.235 19.2871C137.286 29.8816 140.445 41.0855 143.604 52.6718C147.859 72.1774 151.05 90.5993 154.241 111.188C157.433 126.359 161.687 139.363 167.006 153.45C171.263 163.983 176.911 173.452 183.155 182.467C185.567 185.95 189.047 190.679 193.593 196.654L193.593 196.654C194.325 197.616 194.171 199.014 193.248 199.777C192.699 200.231 191.97 200.375 191.3 200.161C183.566 197.693 177.605 195.609 173.416 193.911C143.816 181.905 116.859 163.737 92.5453 141.53C64.6977 145.963 37.562 156.923 14.0505 173.224C11.3793 175.076 7.79581 177.79 3.3001 181.367L3.30012 181.367C2.52028 181.988 1.40576 181.831 0.810788 181.018C0.463495 180.543 0.356947 179.923 0.52461 179.352C2.15226 173.81 3.53258 169.524 4.66557 166.493C21.9606 120.229 57.556 83.8581 91.4816 48.3373C100.394 38.5595 107.981 28.3315 114.242 17.3633C116.235 13.8731 118.787 8.69192 121.9 1.81975L121.9 1.81969C122.319 0.894736 123.378 0.499062 124.265 0.935932C124.61 1.10591 124.893 1.3873 125.073 1.7384C128.896 9.20555 131.616 15.0551 133.235 19.2871Z" fill="#4B4B4B"/>
</svg>
